<svg width="40" height="40" viewBox="0 0 40 40" fill="none" xmlns="http://www.w3.org/2000/svg">
<path fill-rule="evenodd" clip-rule="evenodd" d="M19.14 3.61667C19.3722 3.39652 19.68 3.2738 20 3.2738C20.32 3.2738 20.6278 3.39652 20.86 3.61667C24.3979 6.97647 29.1098 8.81888 33.9883 8.75C34.2541 8.74654 34.5141 8.8279 34.7305 8.98225C34.9468 9.1366 35.1084 9.35591 35.1917 9.60833C35.895 11.7519 36.2523 13.9939 36.25 16.25C36.25 26.1533 29.4767 34.4717 20.3117 36.83C20.1072 36.8827 19.8928 36.8827 19.6883 36.83C10.5233 34.4717 3.75 26.1533 3.75 16.25C3.75 13.9333 4.12167 11.7 4.80833 9.60833C4.89131 9.3556 5.05274 9.13593 5.26915 8.98126C5.48557 8.82659 5.74568 8.74499 6.01167 8.74833L6.25 8.75C11.2433 8.75 15.78 6.8 19.14 3.61667ZM20 13.75C20.3315 13.75 20.6495 13.8817 20.8839 14.1161C21.1183 14.3505 21.25 14.6685 21.25 15V21.25C21.25 21.5815 21.1183 21.8995 20.8839 22.1339C20.6495 22.3683 20.3315 22.5 20 22.5C19.6685 22.5 19.3505 22.3683 19.1161 22.1339C18.8817 21.8995 18.75 21.5815 18.75 21.25V15C18.75 14.6685 18.8817 14.3505 19.1161 14.1161C19.3505 13.8817 19.6685 13.75 20 13.75ZM20 25C19.6685 25 19.3505 25.1317 19.1161 25.3661C18.8817 25.6005 18.75 25.9185 18.75 26.25V26.2633C18.75 26.9533 19.31 27.5133 20 27.5133H20.0133C20.3449 27.5133 20.6628 27.3816 20.8972 27.1472C21.1316 26.9128 21.2633 26.5949 21.2633 26.2633V26.25C21.2633 25.9185 21.1316 25.6005 20.8972 25.3661C20.6628 25.1317 20.3449 25 20.0133 25H20Z" fill="#5CC8F2"/>
</svg>
