<svg xmlns="http://www.w3.org/2000/svg" width="40" height="40" viewBox="0 0 40 40" fill="none">
  <path d="M19.5001 4.67497C19.6578 4.60614 19.828 4.57062 20.0001 4.57062C20.1721 4.57062 20.3424 4.60614 20.5001 4.67497C26.6635 7.36898 32.5426 10.6715 38.0501 14.5333C38.2442 14.6694 38.3955 14.8579 38.4866 15.0768C38.5776 15.2957 38.6045 15.5359 38.5641 15.7695C38.5237 16.0031 38.4178 16.2204 38.2586 16.3961C38.0994 16.5718 37.8936 16.6985 37.6651 16.7616C31.9474 18.3408 26.4148 20.5265 21.1617 23.2816L21.1567 23.285C20.9667 23.385 20.7784 23.4833 20.5901 23.585C20.4088 23.6818 20.2064 23.7325 20.0009 23.7325C19.7954 23.7325 19.593 23.6818 19.4117 23.585C17.1587 22.3826 14.8524 21.2826 12.5001 20.2883V19.915C12.5001 19.6966 12.6117 19.5016 12.7867 19.3966C15.3023 17.8722 17.8904 16.4705 20.5417 15.1966C20.8405 15.053 21.07 14.7965 21.1798 14.4836C21.2895 14.1708 21.2704 13.8271 21.1267 13.5283C20.9831 13.2295 20.7266 13 20.4137 12.8903C20.1008 12.7806 19.7572 12.7996 19.4584 12.9433C16.7347 14.2521 14.076 15.6921 11.4917 17.2583C11.1241 17.4813 10.8069 17.7785 10.5604 18.1309C10.3139 18.4833 10.1435 18.8831 10.0601 19.305C7.52874 18.331 4.95121 17.4816 2.33673 16.76C2.10822 16.6969 1.90237 16.5701 1.74318 16.3944C1.584 16.2188 1.47804 16.0015 1.43768 15.7679C1.39732 15.5343 1.42422 15.294 1.51524 15.0751C1.60626 14.8562 1.75764 14.6678 1.95173 14.5316C7.45871 10.6705 13.3373 7.36858 19.5001 4.67497Z" fill="#202026" fill-opacity="0.32"/>
  <path d="M21.7666 25.7883C25.8604 23.6012 30.1351 21.7711 34.5433 20.3183C34.7666 22.675 34.9099 25.0567 34.9683 27.4583C34.9747 27.7101 34.905 27.9579 34.7682 28.1694C34.6314 28.3808 34.4339 28.546 34.2016 28.6433C29.4771 30.6165 24.9534 33.0399 20.6933 35.88C20.4879 36.0169 20.2467 36.0899 19.9999 36.0899C19.7532 36.0899 19.5119 36.0169 19.3066 35.88C15.047 33.04 10.5239 30.6166 5.79994 28.6433C5.5676 28.5464 5.36995 28.3816 5.23286 28.1704C5.09577 27.9593 5.02562 27.7117 5.0316 27.46C5.08994 25.0567 5.23327 22.6767 5.4566 20.3167C6.9916 20.8233 8.5066 21.3733 9.99994 21.9667V24.0833C9.63983 24.2908 9.33712 24.5848 9.11921 24.9387C8.9013 25.2926 8.77505 25.6952 8.75189 26.1102C8.72872 26.5251 8.80937 26.9393 8.98655 27.3153C9.16372 27.6912 9.43182 28.017 9.7666 28.2633C9.6166 28.8967 9.3966 29.5183 9.10494 30.1133C9.85827 30.4683 10.6066 30.8367 11.3483 31.2133C11.7663 30.3629 12.0749 29.463 12.2666 28.535C12.6881 28.3476 13.0495 28.0472 13.3109 27.6672C13.5722 27.2871 13.7233 26.8421 13.7475 26.3815C13.7716 25.9209 13.6679 25.4626 13.4477 25.0572C13.2275 24.6519 12.8995 24.3154 12.4999 24.085V23.01C14.4468 23.8605 16.3594 24.7873 18.2333 25.7883C18.7769 26.0787 19.3837 26.2305 19.9999 26.2305C20.6162 26.2305 21.223 26.0787 21.7666 25.7883Z" fill="#202026" fill-opacity="0.32"/>
  <path d="M7.43685 32.4367C8.13685 31.7384 8.69185 30.9534 9.10351 30.1117C9.85851 30.4684 10.6068 30.8367 11.3485 31.215C10.8032 32.3227 10.079 33.3329 9.20518 34.205C8.96822 34.4258 8.65481 34.546 8.33098 34.5403C8.00714 34.5346 7.69817 34.4034 7.46914 34.1744C7.24012 33.9454 7.10894 33.6364 7.10322 33.3126C7.09751 32.9887 7.21771 32.6753 7.43851 32.4384L7.43685 32.4367Z" fill="#202026" fill-opacity="0.32"/>
</svg>