<svg width="40" height="40" viewBox="0 0 40 40" fill="none" xmlns="http://www.w3.org/2000/svg">
<path fill-rule="evenodd" clip-rule="evenodd" d="M12.5 8.75C12.5 7.42392 13.0268 6.15215 13.9645 5.21447C14.9021 4.27678 16.1739 3.75 17.5 3.75H22.5C23.8261 3.75 25.0979 4.27678 26.0355 5.21447C26.9732 6.15215 27.5 7.42392 27.5 8.75V9.09167C29.055 9.23333 30.595 9.42 32.1233 9.64833C34.5467 10.0117 36.25 12.12 36.25 14.51V19.565C36.25 21.5833 35.0267 23.485 33.0233 24.1517C28.8231 25.5459 24.4256 26.2544 20 26.25C15.45 26.25 11.0717 25.5133 6.97667 24.1517C4.97333 23.485 3.75 21.5833 3.75 19.565V14.51C3.75 12.12 5.45333 10.01 7.87667 9.64833C9.41215 9.4187 10.9539 9.23307 12.5 9.09167V8.75ZM25 8.75V8.9C21.6697 8.69775 18.3303 8.69775 15 8.9V8.75C15 8.08696 15.2634 7.45107 15.7322 6.98223C16.2011 6.51339 16.837 6.25 17.5 6.25H22.5C23.163 6.25 23.7989 6.51339 24.2678 6.98223C24.7366 7.45107 25 8.08696 25 8.75ZM20 22.5C20.3315 22.5 20.6495 22.3683 20.8839 22.1339C21.1183 21.8995 21.25 21.5815 21.25 21.25C21.25 20.9185 21.1183 20.6005 20.8839 20.3661C20.6495 20.1317 20.3315 20 20 20C19.6685 20 19.3505 20.1317 19.1161 20.3661C18.8817 20.6005 18.75 20.9185 18.75 21.25C18.75 21.5815 18.8817 21.8995 19.1161 22.1339C19.3505 22.3683 19.6685 22.5 20 22.5Z" fill="#B7B7B9"/>
<path d="M5 30.6667V26.0067C5.3797 26.2144 5.77743 26.3873 6.18833 26.5233C10.6428 28.0023 15.3064 28.7541 20 28.75C24.82 28.75 29.4667 27.97 33.8117 26.525C34.2317 26.385 34.6283 26.21 35 26.0067V30.6667C35 33.0867 33.255 35.2133 30.795 35.5383C27.2617 36.0083 23.6583 36.25 20 36.25C16.3899 36.2507 12.7837 36.013 9.205 35.5383C6.745 35.2133 5 33.0867 5 30.6667Z" fill="#B7B7B9"/>
</svg>
