<svg width="40" height="40" viewBox="0 0 40 40" fill="none" xmlns="http://www.w3.org/2000/svg">
<path d="M20.0002 1.25C16.9744 1.24932 14.0329 2.24671 11.6316 4.0876C9.23022 5.92848 7.50315 8.51004 6.71803 11.4322C5.93291 14.3543 6.13358 17.4538 7.28894 20.2503C8.4443 23.0468 10.4898 25.3841 13.1085 26.9C14.2518 27.5633 14.9668 28.58 14.9985 29.605C15.0072 29.8795 15.1062 30.1436 15.28 30.3563C15.4538 30.5689 15.6929 30.7184 15.9602 30.7817C16.5468 30.92 17.1435 31.0283 17.7502 31.1067C18.2885 31.175 18.7502 30.7433 18.7502 30.2V22.4317C18.2235 22.3738 17.7016 22.2785 17.1885 22.1467C17.0295 22.1057 16.8801 22.0339 16.7489 21.9352C16.6176 21.8366 16.5071 21.713 16.4236 21.5716C16.3401 21.4303 16.2853 21.2738 16.2622 21.1113C16.2392 20.9487 16.2484 20.7832 16.2893 20.6242C16.3303 20.4652 16.4021 20.3158 16.5008 20.1845C16.5994 20.0533 16.723 19.9428 16.8644 19.8593C17.0057 19.7758 17.1622 19.7209 17.3247 19.6979C17.4873 19.6749 17.6528 19.6841 17.8118 19.725C19.2473 20.095 20.7531 20.095 22.1885 19.725C22.3491 19.6787 22.5174 19.6651 22.6833 19.685C22.8493 19.7049 23.0096 19.7579 23.1547 19.8408C23.2998 19.9237 23.4268 20.0349 23.5283 20.1678C23.6297 20.3006 23.7034 20.4525 23.7451 20.6143C23.7868 20.7762 23.7956 20.9448 23.771 21.1101C23.7464 21.2754 23.6889 21.4341 23.6019 21.5769C23.5149 21.7196 23.4001 21.8434 23.2644 21.941C23.1287 22.0385 22.9748 22.1079 22.8118 22.145C22.2987 22.2774 21.7769 22.3732 21.2502 22.4317V30.1983C21.2502 30.7433 21.7118 31.175 22.2502 31.1067C22.8568 31.0283 23.4535 30.92 24.0402 30.7817C24.3075 30.7184 24.5465 30.5689 24.7203 30.3563C24.8942 30.1436 24.9931 29.8795 25.0018 29.605C25.0352 28.58 25.7485 27.5633 26.8918 26.9C29.5105 25.3841 31.556 23.0468 32.7114 20.2503C33.8668 17.4538 34.0674 14.3543 33.2823 11.4322C32.4972 8.51004 30.7701 5.92848 28.3688 4.0876C25.9674 2.24671 23.0259 1.24932 20.0002 1.25Z" fill="#B7B7B9"/>
<path fill-rule="evenodd" clip-rule="evenodd" d="M15.0217 33.1667C15.0523 33.0054 15.1144 32.8516 15.2044 32.7143C15.2945 32.577 15.4107 32.4588 15.5464 32.3664C15.6821 32.274 15.8348 32.2092 15.9955 32.1758C16.1563 32.1424 16.3221 32.141 16.4834 32.1717C18.8071 32.6126 21.193 32.6126 23.5167 32.1717C23.68 32.1357 23.8488 32.1329 24.0132 32.1634C24.1776 32.1938 24.3342 32.257 24.4738 32.349C24.6133 32.4411 24.733 32.5602 24.8257 32.6993C24.9184 32.8385 24.9823 32.9948 25.0135 33.159C25.0447 33.3233 25.0426 33.4921 25.0075 33.6556C24.9723 33.819 24.9047 33.9737 24.8086 34.1106C24.7126 34.2474 24.59 34.3636 24.4483 34.4522C24.3065 34.5409 24.1485 34.6002 23.9834 34.6267C21.3513 35.1262 18.6488 35.1262 16.0167 34.6267C15.6913 34.5649 15.4036 34.3764 15.2171 34.1026C15.0305 33.8288 14.9602 33.4922 15.0217 33.1667ZM16.2567 37.24C16.2738 37.0767 16.3228 36.9184 16.4011 36.7741C16.4793 36.6298 16.5852 36.5023 16.7128 36.3989C16.8403 36.2955 16.987 36.2183 17.1443 36.1715C17.3017 36.1248 17.4668 36.1096 17.6301 36.1267C19.2058 36.2913 20.7943 36.2913 22.37 36.1267C22.6998 36.0922 23.0297 36.1901 23.2873 36.3989C23.5448 36.6077 23.7089 36.9103 23.7434 37.24C23.7779 37.5698 23.6799 37.8997 23.4711 38.1573C23.2624 38.4148 22.9598 38.5789 22.6301 38.6134C20.8815 38.7964 19.1186 38.7964 17.3701 38.6134C17.2068 38.5963 17.0484 38.5472 16.9041 38.469C16.7598 38.3907 16.6323 38.2848 16.5289 38.1573C16.4255 38.0298 16.3483 37.8831 16.3016 37.7257C16.2549 37.5683 16.2396 37.4033 16.2567 37.24Z" fill="#B7B7B9"/>
</svg>
