<svg width="40" height="40" viewBox="0 0 40 40" fill="none" xmlns="http://www.w3.org/2000/svg">
<path d="M27.5 12.5H12.5V27.5H27.5V12.5Z" fill="#5CC8F2"/>
<path fill-rule="evenodd" clip-rule="evenodd" d="M13.75 3.75C14.0815 3.75 14.3995 3.8817 14.6339 4.11612C14.8683 4.35054 15 4.66848 15 5V6.25H18.75V5C18.75 4.66848 18.8817 4.35054 19.1161 4.11612C19.3505 3.8817 19.6685 3.75 20 3.75C20.3315 3.75 20.6495 3.8817 20.8839 4.11612C21.1183 4.35054 21.25 4.66848 21.25 5V6.25H25V5C25 4.66848 25.1317 4.35054 25.3661 4.11612C25.6005 3.8817 25.9185 3.75 26.25 3.75C26.5815 3.75 26.8995 3.8817 27.1339 4.11612C27.3683 4.35054 27.5 4.66848 27.5 5V6.25H28.75C30.0761 6.25 31.3479 6.77678 32.2855 7.71447C33.2232 8.65215 33.75 9.92392 33.75 11.25V12.5H35C35.3315 12.5 35.6495 12.6317 35.8839 12.8661C36.1183 13.1005 36.25 13.4185 36.25 13.75C36.25 14.0815 36.1183 14.3995 35.8839 14.6339C35.6495 14.8683 35.3315 15 35 15H33.75V18.75H35C35.3315 18.75 35.6495 18.8817 35.8839 19.1161C36.1183 19.3505 36.25 19.6685 36.25 20C36.25 20.3315 36.1183 20.6495 35.8839 20.8839C35.6495 21.1183 35.3315 21.25 35 21.25H33.75V25H35C35.3315 25 35.6495 25.1317 35.8839 25.3661C36.1183 25.6005 36.25 25.9185 36.25 26.25C36.25 26.5815 36.1183 26.8995 35.8839 27.1339C35.6495 27.3683 35.3315 27.5 35 27.5H33.75V28.75C33.75 30.0761 33.2232 31.3479 32.2855 32.2855C31.3479 33.2232 30.0761 33.75 28.75 33.75H27.5V35C27.5 35.3315 27.3683 35.6495 27.1339 35.8839C26.8995 36.1183 26.5815 36.25 26.25 36.25C25.9185 36.25 25.6005 36.1183 25.3661 35.8839C25.1317 35.6495 25 35.3315 25 35V33.75H21.25V35C21.25 35.3315 21.1183 35.6495 20.8839 35.8839C20.6495 36.1183 20.3315 36.25 20 36.25C19.6685 36.25 19.3505 36.1183 19.1161 35.8839C18.8817 35.6495 18.75 35.3315 18.75 35V33.75H15V35C15 35.3315 14.8683 35.6495 14.6339 35.8839C14.3995 36.1183 14.0815 36.25 13.75 36.25C13.4185 36.25 13.1005 36.1183 12.8661 35.8839C12.6317 35.6495 12.5 35.3315 12.5 35V33.75H11.25C9.92392 33.75 8.65215 33.2232 7.71447 32.2855C6.77678 31.3479 6.25 30.0761 6.25 28.75V27.5H5C4.66848 27.5 4.35054 27.3683 4.11612 27.1339C3.8817 26.8995 3.75 26.5815 3.75 26.25C3.75 25.9185 3.8817 25.6005 4.11612 25.3661C4.35054 25.1317 4.66848 25 5 25H6.25V21.25H5C4.66848 21.25 4.35054 21.1183 4.11612 20.8839C3.8817 20.6495 3.75 20.3315 3.75 20C3.75 19.6685 3.8817 19.3505 4.11612 19.1161C4.35054 18.8817 4.66848 18.75 5 18.75H6.25V15H5C4.66848 15 4.35054 14.8683 4.11612 14.6339C3.8817 14.3995 3.75 14.0815 3.75 13.75C3.75 13.4185 3.8817 13.1005 4.11612 12.8661C4.35054 12.6317 4.66848 12.5 5 12.5H6.25V11.25C6.25 9.92392 6.77678 8.65215 7.71447 7.71447C8.65215 6.77678 9.92392 6.25 11.25 6.25H12.5V5C12.5 4.66848 12.6317 4.35054 12.8661 4.11612C13.1005 3.8817 13.4185 3.75 13.75 3.75ZM10 11.25C10 10.9185 10.1317 10.6005 10.3661 10.3661C10.6005 10.1317 10.9185 10 11.25 10H28.75C29.0815 10 29.3995 10.1317 29.6339 10.3661C29.8683 10.6005 30 10.9185 30 11.25V28.75C30 29.0815 29.8683 29.3995 29.6339 29.6339C29.3995 29.8683 29.0815 30 28.75 30H11.25C10.9185 30 10.6005 29.8683 10.3661 29.6339C10.1317 29.3995 10 29.0815 10 28.75V11.25Z" fill="#5CC8F2"/>
</svg>
