<svg width="330" height="474" viewBox="0 0 330 474" fill="none" xmlns="http://www.w3.org/2000/svg">
<g clip-path="url(#clip0_65_1389)">
<path d="M329.195 242.5C329.195 376.327 220.808 484.5 87.1947 484.5C79.2788 484.5 71.3634 484.134 63.6183 483.401C155.205 441.816 219.013 349.579 219.013 242.5C219.013 135.421 155.205 43.1837 63.6183 1.59889C71.3634 0.866341 79.2788 0.5 87.1947 0.5C220.808 0.5 329.195 108.887 329.195 242.5Z" stroke="#202026" stroke-opacity="0.24"/>
<path d="M20.4366 475.307L20.435 475.308C-0.514832 481.293 -22.5335 484.5 -45.4082 484.5C-178.807 484.5 -287.408 376.113 -287.408 242.5C-287.408 108.887 -178.807 0.5 -45.4082 0.5C-22.5331 0.5 -0.300171 3.7068 20.6492 9.69234L20.6496 9.69245C121.983 38.5532 196.592 131.977 196.592 242.5C196.592 353.237 121.983 446.66 20.4366 475.307Z" stroke="#202026" stroke-opacity="0.24"/>
</g>
<defs>
<clipPath id="clip0_65_1389">
<rect width="330" height="474" fill="white"/>
</clipPath>
</defs>
</svg>
