<svg width="132" height="111" viewBox="0 0 132 111" fill="none" xmlns="http://www.w3.org/2000/svg">
<g clip-path="url(#clip0_68_1400)">
<g opacity="0.16">
<mask id="path-1-inside-1_68_1400" fill="white">
<path fill-rule="evenodd" clip-rule="evenodd" d="M7.64615 -11.1592L132 -79.5046C132 -45.8215 113.657 -14.8147 84.1513 1.37411L57.9075 15.8071L60.5857 17.3019L84.5425 30.4879C113.833 46.6009 131.975 77.317 131.999 110.649L7.90676 43.4781L7.76474 43.3835L7.71139 43.4128C2.94614 40.8017 -0.0566406 35.7753 -0.0566406 30.3573V1.83105C-0.0566406 -3.58698 2.8809 -8.54806 7.64615 -11.1592Z"/>
</mask>
<path d="M132 -79.5046H133.21V-81.5505L131.417 -80.5651L132 -79.5046ZM7.64615 -11.1592L8.22763 -10.098L8.22898 -10.0987L7.64615 -11.1592ZM84.1513 1.37411L83.5693 0.313248L83.5682 0.313824L84.1513 1.37411ZM57.9075 15.8071L57.3244 14.7468L55.4106 15.7993L57.3178 16.8637L57.9075 15.8071ZM60.5857 17.3019L59.996 18.3585L60.0022 18.362L60.5857 17.3019ZM84.5425 30.4879L83.959 31.548L83.9593 31.5482L84.5425 30.4879ZM131.999 110.649L131.423 111.713L133.211 112.68L133.209 110.648L131.999 110.649ZM7.90676 43.4781L7.23551 44.4849L7.2818 44.5158L7.33074 44.5423L7.90676 43.4781ZM7.76474 43.3835L8.43599 42.3766L7.825 41.9693L7.18157 42.3232L7.76474 43.3835ZM7.71139 43.4128L7.12992 44.474L7.71249 44.7932L8.29456 44.4731L7.71139 43.4128ZM131.417 -80.5651L7.06332 -12.2196L8.22898 -10.0987L132.582 -78.4442L131.417 -80.5651ZM84.7334 2.43498C114.627 -13.9666 133.21 -45.3802 133.21 -79.5046H130.79C130.79 -46.2627 112.687 -15.6628 83.5693 0.313249L84.7334 2.43498ZM58.4906 16.8674L84.7344 2.43441L83.5682 0.313824L57.3244 14.7468L58.4906 16.8674ZM61.1754 16.2453L58.4972 14.7505L57.3178 16.8637L59.996 18.3585L61.1754 16.2453ZM85.126 29.4278L61.1692 16.2418L60.0022 18.362L83.959 31.548L85.126 29.4278ZM133.209 110.648C133.185 76.8753 114.803 45.7533 85.1258 29.4277L83.9593 31.5482C112.863 47.4486 130.766 77.7588 130.789 110.649L133.209 110.648ZM7.33074 44.5423L131.423 111.713L132.575 109.584L8.48279 42.414L7.33074 44.5423ZM7.09349 44.3903L7.23551 44.4849L8.57802 42.4713L8.43599 42.3766L7.09349 44.3903ZM8.29456 44.4731L8.34791 44.4437L7.18157 42.3232L7.12822 42.3525L8.29456 44.4731ZM-1.2667 30.3573C-1.2667 36.2219 1.98111 41.6527 7.12992 44.474L8.29287 42.3516C3.91116 39.9507 1.15342 35.3287 1.15342 30.3573H-1.2667ZM-1.2667 1.83105V30.3573H1.15342V1.83105H-1.2667ZM7.06468 -12.2203C1.9123 -9.39713 -1.2667 -4.02951 -1.2667 1.83105H1.15342C1.15342 -3.14444 3.8495 -7.69899 8.22763 -10.098L7.06468 -12.2203Z" fill="black" mask="url(#path-1-inside-1_68_1400)"/>
</g>
</g>
<defs>
<clipPath id="clip0_68_1400">
<rect width="132" height="111" fill="white"/>
</clipPath>
</defs>
</svg>
