<svg width="80" height="80" viewBox="0 0 80 80" fill="none" xmlns="http://www.w3.org/2000/svg">
<rect width="80" height="80" rx="40" transform="matrix(-1 0 0 1 80 0)" fill="white"/>
<path d="M36.0503 24.0107L15.1338 35.5003C14.3322 35.9385 13.8406 36.7722 13.8406 37.6807V42.4796C13.8406 43.3881 14.3429 44.2324 15.1445 44.6707L28.0022 37.6059C32.9614 34.8804 36.0503 29.6647 36.0503 24V24.0107Z" fill="#5CC8F2"/>
<path d="M36.0504 56C36.0504 50.3888 32.9936 45.2158 28.0665 42.5117L24.0371 40.2993L23.5668 40.0321L15.1447 44.6707L15.1767 44.6921L36.0504 55.9893V56Z" fill="#012840"/>
<path d="M43.9495 55.989L64.8659 44.4994C65.6675 44.0612 66.1592 43.2276 66.1592 42.3191V37.5201C66.1592 36.6117 65.6568 35.7673 64.8552 35.3291L51.9975 42.3939C47.0383 45.1193 43.9495 50.3351 43.9495 55.9997V55.989Z" fill="#5CC8F2"/>
<path d="M43.9495 24C43.9495 29.6112 47.0062 34.7842 51.9334 37.4883L55.9628 39.7007L56.4331 39.9679L64.8552 35.3293L64.8232 35.3079L43.9495 24.0107V24Z" fill="#012840"/>
<path d="M40.0045 43.6552C42.7906 43.6552 45.0492 41.3966 45.0492 38.6104C45.0492 35.8243 42.7906 33.5657 40.0045 33.5657C37.2183 33.5657 34.9597 35.8243 34.9597 38.6104C34.9597 41.3966 37.2183 43.6552 40.0045 43.6552Z" fill="#012840"/>
<path d="M40.0045 46.4127C42.7906 46.4127 45.0492 44.1541 45.0492 41.368C45.0492 38.5819 42.7906 36.3232 40.0045 36.3232C37.2183 36.3232 34.9597 38.5819 34.9597 41.368C34.9597 44.1541 37.2183 46.4127 40.0045 46.4127Z" fill="#5CC8F2"/>
</svg>
