<svg width="163" height="24" viewBox="0 0 163 24" fill="none" xmlns="http://www.w3.org/2000/svg">
<g clip-path="url(#clip0_77_2903)">
<path d="M143.112 1.76971L129.296 9.36355C128.766 9.65367 128.44 10.2049 128.44 10.8069V13.9764C128.44 14.5784 128.773 15.1369 129.303 15.427L137.796 10.7561C141.074 8.95738 143.112 5.51223 143.112 1.76971Z" fill="#049DD9"/>
<path d="M143.112 22.9048C143.112 19.1985 141.096 15.7824 137.839 13.9909L135.178 12.5258L134.866 12.3518L129.303 15.4198L129.324 15.4343L143.112 22.8975V22.9048Z" fill="white"/>
<path d="M148.327 22.8975L162.144 15.3037C162.674 15.0136 163 14.4624 163 13.8604V10.6908C163 10.0888 162.666 9.53037 162.137 9.24025L153.644 13.9111C150.365 15.7099 148.327 19.155 148.327 22.8975Z" fill="#049DD9"/>
<path d="M148.327 1.76247C148.327 5.46872 150.351 8.88486 153.6 10.6763L156.262 12.1414L156.574 12.3155L162.137 9.24751L162.115 9.233L148.327 1.76972V1.76247Z" fill="white"/>
<path d="M145.723 14.7452C147.566 14.7452 149.052 13.2511 149.052 11.4089C149.052 9.56662 147.558 8.07251 145.723 8.07251C143.888 8.07251 142.387 9.56662 142.387 11.4089C142.387 13.2511 143.881 14.7452 145.723 14.7452Z" fill="white"/>
<path d="M145.723 16.7543C147.667 16.7543 149.234 15.1804 149.234 13.2366C149.234 11.2928 147.66 9.72618 145.723 9.72618C143.787 9.72618 142.206 11.3001 142.206 13.2366C142.206 15.1731 143.78 16.7543 145.723 16.7543Z" fill="#049DD9"/>
<path d="M0.461426 24V19.9238C0.461426 18.7271 0.809567 17.806 1.4986 17.175C2.15136 16.5657 3.06523 16.2684 4.24746 16.2684C3.34085 15.4415 2.88391 14.1868 2.88391 12.4968C2.88391 10.952 3.27557 9.76247 4.05163 8.92113C4.74792 8.16682 5.66179 7.79692 6.8005 7.79692C7.93921 7.79692 8.73704 8.1233 9.35354 8.76882C9.9918 9.42158 10.3037 10.3064 10.3037 11.4306V13.5122C10.3037 14.6219 9.9918 15.5068 9.3753 16.1523C8.75154 16.8051 7.90295 17.1387 6.82226 17.1677H4.16043C2.36895 17.1677 1.47684 18.0889 1.47684 19.9384V22.2956C1.47684 23.0136 1.08518 23.6664 0.461426 24ZM9.30277 11.612C9.30277 9.67543 8.46868 8.71079 6.80775 8.71079C5.90114 8.71079 5.18309 9.05168 4.66088 9.7262C4.15318 10.3935 3.89932 11.3146 3.89932 12.4968C3.89932 13.6791 4.16043 14.6582 4.68264 15.3327C5.16134 15.9565 5.79959 16.2611 6.61192 16.2611C8.4034 16.2611 9.29552 15.34 9.29552 13.4905V11.6047L9.30277 11.612Z" fill="white"/>
<path d="M25.4551 16.2684H26.3835V17.175H25.3028C23.874 17.175 22.8586 16.6455 22.2711 15.5938C21.6618 16.6455 20.6464 17.175 19.2176 17.175H12.4796C12.7697 16.6165 13.35 16.2684 13.981 16.2684H16.3962V7.71713C16.3962 7.00634 16.7879 6.35358 17.4116 6.01994V16.2684H19.058C20.8495 16.2684 21.7416 15.3472 21.7416 13.4977V4.89574C21.7416 4.18495 22.1333 3.53218 22.757 3.19855V13.4905C22.757 15.34 23.6492 16.2611 25.4406 16.2611L25.4551 16.2684Z" fill="white"/>
<path d="M25.0852 17.175V16.2684H27.8123C31.1342 16.2684 33.7307 15.1006 35.6092 12.7579C34.2529 10.0598 32.5557 8.70353 30.5177 8.70353C29.2919 8.70353 28.1169 9.32728 27.0072 10.5675C27.0072 9.79147 27.4061 9.06618 28.0517 8.631C28.893 8.07252 29.7488 7.78966 30.6265 7.78966C32.8531 7.78966 34.7896 9.30552 36.4361 12.3373V13.1641C34.3545 15.8332 31.4751 17.175 27.7906 17.175H25.0852Z" fill="white"/>
<path d="M47.2284 4.89574C47.2284 4.18495 47.6201 3.53218 48.2438 3.19855V13.5122C48.2438 14.68 47.903 15.6011 47.2284 16.2611C46.5902 16.8704 45.7488 17.1677 44.6899 17.1677H37.9519C38.242 16.6092 38.8223 16.2611 39.4533 16.2611H41.8685V7.70988C41.8685 6.99909 42.2602 6.34633 42.8839 6.01269V16.2611H44.5303C46.3218 16.2611 47.2139 15.34 47.2139 13.4905V4.89574H47.2284Z" fill="white"/>
<path d="M52.146 17.175V4.89574C52.146 4.18495 52.5377 3.53218 53.1614 3.19855V17.175H52.146Z" fill="white"/>
<path d="M77.8866 17.3345C78.0099 17.3491 78.1332 17.3563 78.2637 17.3563H78.3725C78.2057 17.3563 78.0462 17.3563 77.8866 17.3345Z" fill="white"/>
<path d="M87.0108 8.92113V13.3237C87.0108 14.5929 86.6192 15.6156 85.8504 16.3554C85.1323 17.0227 84.1967 17.3563 83.058 17.3563H78.3726C78.2058 17.3563 78.0462 17.3563 77.8866 17.3345C77.2339 17.3055 76.5956 17.1605 75.9428 16.9211C75.1813 17.2112 74.3907 17.3563 73.6074 17.3563H72.592C72.4034 18.6111 71.6781 19.6265 70.4451 20.3808C69.2701 21.1061 67.747 21.476 65.9338 21.476C63.6056 21.476 61.8286 20.787 60.6391 19.4161C59.7615 18.4152 59.3191 17.1532 59.3191 15.6591V15.6229C59.3191 13.8676 60.5303 12.3518 62.2348 11.9601L62.5902 11.8803L62.3581 12.243C61.7343 13.2439 61.4152 14.3246 61.4152 15.4633C61.4152 16.6963 61.8141 17.6682 62.6047 18.3572C63.388 19.068 64.5122 19.4234 65.9338 19.4234C67.145 19.4234 68.1459 19.2131 68.922 18.7924C69.611 18.4225 70.0389 17.951 70.242 17.3563H68.0226C68.6972 16.058 70.0389 15.2384 71.504 15.2384H74.4052C73.7887 14.3246 73.4841 13.1859 73.6292 11.9746C73.8685 9.97281 75.4061 8.29738 77.3862 7.89847C77.4079 7.89847 77.4297 7.89121 77.4442 7.88396C79.1051 7.57208 80.621 8.91388 80.621 10.6038V11.0172H80.534C79.9465 10.2122 78.9238 9.74071 77.7996 9.97281C76.8204 10.1759 76.0154 10.9592 75.7833 11.9311C75.3771 13.6863 76.6899 15.2384 78.3726 15.2384H82.8839C84.1604 15.2239 84.7842 14.5784 84.7842 13.2584V12.6346C84.7842 11.0825 85.64 9.65368 87.0108 8.92113Z" fill="white"/>
<path d="M118.866 9.08794C117.85 7.90571 116.48 7.31097 114.79 7.31097C112.759 7.31097 110.967 8.13781 109.459 9.77697C108.146 11.2058 107.188 13.0045 106.594 15.1369C105.861 14.9193 105.499 14.3028 105.499 13.2584V8.92113C104.128 9.65367 103.272 11.0825 103.272 12.6346V13.2584C103.272 14.6074 102.655 15.2384 101.328 15.2384H93.9809C92.6753 15.2384 92.0371 14.5929 92.0371 13.2584V0C90.6663 0.732548 89.8104 2.16138 89.8104 3.71351V13.3237C89.8104 14.4261 90.115 15.3545 90.7243 16.0798C91.4351 16.9284 92.4577 17.3563 93.7633 17.3563H101.546C102.713 17.3563 103.671 17.0009 104.389 16.2901C105.1 17.0009 106.05 17.3563 107.225 17.3563H116.197C117.321 17.3563 118.242 17.0372 118.938 16.4062C119.736 15.6809 120.142 14.651 120.142 13.3454V12.7797C120.142 11.3146 119.714 10.0743 118.866 9.08794ZM116.088 15.2384H108.748C109.241 13.7443 109.93 12.4751 110.808 11.4669C111.99 10.1034 113.339 9.40707 114.811 9.40707C115.653 9.40707 116.371 9.68268 116.936 10.2194C117.589 10.8504 117.923 11.7063 117.923 12.7797V13.1714C117.923 14.5639 117.321 15.2384 116.088 15.2384Z" fill="white"/>
<path d="M87.0108 5.92566C87.0108 5.13253 86.3679 4.48958 85.5748 4.48958C84.7816 4.48958 84.1387 5.13253 84.1387 5.92566C84.1387 6.71879 84.7816 7.36174 85.5748 7.36174C86.3679 7.36174 87.0108 6.71879 87.0108 5.92566Z" fill="white"/>
</g>
<defs>
<clipPath id="clip0_77_2903">
<rect width="162.539" height="24" fill="white" transform="translate(0.461426)"/>
</clipPath>
</defs>
</svg>
