<svg xmlns="http://www.w3.org/2000/svg" width="73" height="72" viewBox="0 0 73 72" fill="none">
  <path d="M16.0834 7.5C12.3619 7.5 9.33337 10.5285 9.33337 14.25V45.75C9.33337 49.4715 12.3619 52.5 16.0834 52.5H30.3334V26.25C30.3334 21.1275 34.3069 16.9236 39.3334 16.5381V14.25C39.3334 10.5285 36.3049 7.5 32.5834 7.5H16.0834ZM40.0834 19.5C36.3619 19.5 33.3334 22.5285 33.3334 26.25V57.75C33.3334 61.4715 36.3619 64.5 40.0834 64.5H56.5834C60.3049 64.5 63.3334 61.4715 63.3334 57.75V26.25C63.3334 22.5285 60.3049 19.5 56.5834 19.5H40.0834ZM22.0834 40.5H26.5834C27.8254 40.5 28.8334 41.5065 28.8334 42.75C28.8334 43.9935 27.8254 45 26.5834 45H22.0834C20.8414 45 19.8334 43.9935 19.8334 42.75C19.8334 41.5065 20.8414 40.5 22.0834 40.5ZM46.0834 52.5H50.5834C51.8254 52.5 52.8334 53.5065 52.8334 54.75C52.8334 55.9935 51.8254 57 50.5834 57H46.0834C44.8414 57 43.8334 55.9935 43.8334 54.75C43.8334 53.5065 44.8414 52.5 46.0834 52.5Z" fill="#012840"/>
</svg>