<svg width="750" height="500" viewBox="0 0 750 500" fill="none" xmlns="http://www.w3.org/2000/svg">
<rect width="750" height="500" fill="white"/>
<g clip-path="url(#clip0_105_1457)">
<path d="M564.262 419.688H462.805V418.374C489.364 418.374 514.836 407.823 533.617 389.043C552.397 370.262 562.948 344.79 562.948 318.231V247.425H564.262V419.688Z" fill="#F2F2F2"/>
<path d="M287.432 163.77C284.735 164.798 281.981 165.669 279.183 166.379C275.488 167.28 273.402 167.697 269.835 166.313C269.71 166.264 269.59 166.216 269.477 166.169C262.717 163.294 256.938 158.517 252.844 152.418C248.75 146.318 246.518 139.16 246.418 131.815C246.4 131.563 246.4 131.298 246.4 131.04C246.397 129.795 246.456 128.551 246.578 127.312C246.735 125.624 247.005 123.949 247.387 122.298L247.351 122.291C244.463 119.339 243.352 115.294 243.721 111.23C243.973 108.475 244.847 105.813 246.278 103.444C247.709 101.076 249.658 99.0636 251.979 97.5582C255.617 95.2709 259.72 93.823 263.987 93.3198C265.133 93.1876 266.286 93.1207 267.439 93.1195H278.277C280.515 92.5954 282.789 92.2369 285.08 92.0469H285.098C306.909 90.2378 324.11 104.698 322.506 122.291C322.494 122.311 322.476 122.33 322.465 122.35C322.001 123.105 321.591 123.823 321.229 124.508C320.878 125.147 320.581 125.761 320.326 126.342C318.335 130.839 327.794 200.609 324.401 201.669C322.47 202.27 314.687 150.352 316.083 160.225C317.842 172.611 297.48 160.056 287.432 163.77Z" fill="#37474F"/>
<path d="M320.289 289.894L350.525 354.307L234.217 342.527L258.495 280.692L320.289 289.894Z" fill="#FFB6B6"/>
<path d="M380.984 419.039C360.759 425.771 339.445 428.626 318.161 427.454L308.905 412.444C308.905 412.444 308.518 418.034 307.94 426.58C297.808 425.406 287.808 423.286 278.072 420.248C259.607 414.474 242.299 405.527 224.754 397.277C221.2 376.093 219.866 343.427 239.513 324.41L345.263 343.788C345.263 343.788 362.23 356.479 357.691 361.024C353.152 365.563 352.45 364.86 355.432 367.843C358.414 370.825 364.858 374.812 364.924 377.42C364.95 378.438 372.182 396.903 380.984 419.039Z" fill="#37474F"/>
<path d="M301.824 165.425L276.276 167.208L259.762 183.164L253.979 184.197C248.781 185.124 244.103 187.926 240.833 192.072C237.564 196.218 235.929 201.42 236.239 206.692C237.429 226.846 240.093 256.961 245.66 266.731C254.292 281.88 261.422 277.127 254.292 281.88C247.162 286.634 242.375 282.899 245.66 290.411C248.944 297.923 241.22 307.558 241.22 307.558L238.145 310.633L241.407 311.97L345.321 325.491C345.321 325.491 336.336 285.092 341.955 275.168C347.575 265.244 361.199 235.245 349.039 223.508L337.15 181.669L316.699 175.637L301.824 165.425Z" fill="#5CC8F2"/>
<path d="M456.482 331.234C454.772 331.18 453.095 330.755 451.565 329.989C450.036 329.222 448.691 328.133 447.624 326.796C446.557 325.459 445.794 323.906 445.386 322.244C444.978 320.583 444.936 318.853 445.263 317.174L396.519 284.162L402.335 268.435L459.942 308.066C462.728 308.826 465.138 310.582 466.716 313C468.293 315.418 468.929 318.331 468.503 321.187C468.076 324.043 466.617 326.643 464.402 328.495C462.186 330.346 459.368 331.321 456.482 331.234Z" fill="#FFB6B6"/>
<path d="M318.804 179.693L311.721 182.497L349.505 256.293L427.725 309.61L439 290.553L379.458 239.124L355.62 193.407C352.266 186.973 346.646 182.01 339.846 179.477C333.047 176.945 325.55 177.021 318.804 179.693Z" fill="#5CC8F2"/>
<path d="M287.72 158.935C301.889 158.935 313.375 147.449 313.375 133.28C313.375 119.112 301.889 107.626 287.72 107.626C273.551 107.626 262.065 119.112 262.065 133.28C262.065 147.449 273.551 158.935 287.72 158.935Z" fill="#FFB6B6"/>
<path d="M310.029 122.432C309.601 122.657 309.179 122.865 308.751 123.073C308.306 123.287 307.86 123.501 307.409 123.703C298.823 127.595 291.83 128.029 287.588 122.432C287.471 119.487 286.809 116.59 285.633 113.888C285.841 116.907 285.045 119.911 283.369 122.432H274.825C266.025 128.272 261.51 133.638 267.618 152.811C268.016 154.071 270.743 198.823 271.521 202.263C258.2 197.153 246.709 142.9 246.418 128.605C246.4 128.373 246.4 128.13 246.4 127.892C246.397 126.747 246.456 125.602 246.579 124.464C246.735 122.909 247.005 121.368 247.387 119.853L247.351 119.847C245.996 118.551 244.962 116.957 244.331 115.191C243.701 113.425 243.492 111.536 243.721 109.675C245.955 106.749 248.721 104.27 251.873 102.367C254.739 100.979 257.726 99.8574 260.797 99.0159C260.874 98.9981 260.939 98.9802 261.017 98.9624C261.955 98.7069 262.918 98.4752 263.881 98.2732C265.864 97.8572 267.87 97.5537 269.888 97.3641C270.036 97.3582 270.179 97.3463 270.309 97.3463C271.116 97.3468 271.909 97.5643 272.603 97.9761C272.609 97.9761 272.609 97.982 272.621 97.982C273.288 98.3806 273.841 98.9442 274.227 99.6185C274.613 100.293 274.819 101.055 274.825 101.832H284.343C284.694 101.832 285.045 101.844 285.395 101.862C298.651 102.391 309.304 108.059 309.987 121.089C310.017 121.54 310.029 121.98 310.029 122.432Z" fill="#37474F"/>
<path d="M253.754 123.463C263.088 123.463 270.655 115.896 270.655 106.562C270.655 97.2273 263.088 89.6602 253.754 89.6602C244.42 89.6602 236.853 97.2273 236.853 106.562C236.853 115.896 244.42 123.463 253.754 123.463Z" fill="#37474F"/>
<path d="M276.957 98.7442C275.037 107.879 265.563 113.342 256.5 111.108C252.148 110.034 248.401 107.276 246.082 103.44C243.764 99.6035 243.064 95.0032 244.137 90.6511C246.372 81.5881 257.371 84.2009 264.594 78.2878C274.811 69.9228 279.546 86.4252 276.957 98.7442Z" fill="#37474F"/>
<path d="M239.406 353.021C253.81 294.279 282.352 243.789 329.621 204.23C331.45 201.221 334.399 199.06 337.819 198.222C341.24 197.383 344.853 197.936 347.867 199.758L460.237 267.891C463.247 269.72 465.407 272.669 466.246 276.089C467.084 279.51 466.531 283.123 464.709 286.137C446.667 346.413 419.644 398.717 374.494 434.928C372.664 437.937 369.716 440.098 366.295 440.937C362.875 441.775 359.261 441.222 356.248 439.4L243.877 371.267C240.868 369.438 238.707 366.489 237.869 363.069C237.03 359.648 237.583 356.035 239.406 353.021Z" fill="#F2F2F2"/>
<path opacity="0.2" d="M259.378 372.818C256.369 370.989 254.208 368.04 253.369 364.62C252.531 361.199 253.084 357.586 254.906 354.572C269.311 295.829 297.853 245.339 345.122 205.781C346.333 203.811 348.042 202.196 350.078 201.099L347.867 199.758C344.853 197.936 341.24 197.383 337.819 198.221C334.399 199.06 331.45 201.22 329.621 204.23C282.352 243.788 253.81 294.278 239.406 353.021C237.583 356.035 237.03 359.648 237.869 363.069C238.707 366.489 240.868 369.438 243.877 371.267L356.247 439.4C358.247 440.603 360.53 441.256 362.864 441.293C365.198 441.33 367.5 440.75 369.537 439.61L259.378 372.818Z" fill="#263238"/>
<path d="M391.159 339.999L315.731 294.55C314.532 293.826 313.67 292.656 313.334 291.297C312.998 289.938 313.215 288.501 313.938 287.301C314.66 286.102 315.829 285.239 317.188 284.901C318.547 284.563 319.984 284.778 321.184 285.499L396.612 330.947C397.808 331.673 398.667 332.843 399.001 334.2C399.336 335.558 399.118 336.993 398.397 338.191C397.675 339.389 396.508 340.252 395.151 340.59C393.794 340.929 392.359 340.716 391.159 339.999Z" fill="white"/>
<path d="M347.279 279.73L330.685 269.731C329.483 269.012 328.615 267.844 328.274 266.485C327.932 265.126 328.144 263.687 328.864 262.484C329.583 261.282 330.751 260.414 332.11 260.073C333.469 259.731 334.908 259.943 336.111 260.663L336.139 260.68L352.733 270.679C353.929 271.404 354.788 272.574 355.123 273.932C355.458 275.29 355.24 276.725 354.519 277.923C353.797 279.121 352.629 279.984 351.272 280.323C349.915 280.661 348.48 280.448 347.279 279.73Z" fill="white"/>
<path d="M379.17 359.895L303.742 314.446C302.543 313.724 301.679 312.555 301.341 311.196C301.003 309.837 301.218 308.399 301.939 307.199C302.661 305.998 303.829 305.133 305.188 304.794C306.546 304.455 307.984 304.668 309.185 305.389L309.196 305.395L384.624 350.843C385.82 351.569 386.679 352.739 387.013 354.096C387.348 355.454 387.13 356.889 386.408 358.087C385.687 359.285 384.52 360.148 383.163 360.486C381.806 360.825 380.371 360.613 379.17 359.895Z" fill="white"/>
<path d="M400.738 254.305C412.905 254.305 422.769 244.441 422.769 232.274C422.769 220.106 412.905 210.243 400.738 210.243C388.571 210.243 378.707 220.106 378.707 232.274C378.707 244.441 388.571 254.305 400.738 254.305Z" fill="#37474F"/>
<path d="M362.762 468.343C388.768 468.343 409.85 447.261 409.85 421.255C409.85 395.249 388.768 374.167 362.762 374.167C336.756 374.167 315.674 395.249 315.674 421.255C315.674 447.261 336.756 468.343 362.762 468.343Z" fill="white"/>
<path d="M362.762 469C353.319 469 344.088 466.2 336.237 460.954C328.385 455.707 322.266 448.251 318.652 439.526C315.038 430.802 314.093 421.202 315.935 411.941C317.777 402.679 322.324 394.172 329.002 387.495C335.679 380.817 344.186 376.27 353.448 374.428C362.709 372.586 372.309 373.531 381.033 377.145C389.758 380.758 397.214 386.878 402.461 394.729C407.707 402.581 410.507 411.812 410.507 421.255C410.493 433.913 405.458 446.049 396.507 455C387.557 463.951 375.421 468.986 362.762 469ZM362.762 374.824C353.579 374.824 344.602 377.547 336.967 382.649C329.331 387.751 323.38 395.003 319.866 403.487C316.351 411.971 315.432 421.307 317.224 430.314C319.015 439.32 323.437 447.594 329.931 454.087C336.424 460.58 344.698 465.003 353.704 466.794C362.711 468.586 372.047 467.666 380.531 464.152C389.015 460.637 396.267 454.686 401.369 447.051C406.47 439.415 409.194 430.438 409.193 421.255C409.18 408.945 404.283 397.143 395.579 388.439C386.874 379.734 375.072 374.838 362.762 374.824Z" fill="#3F3D56"/>
<path d="M356.339 445.762C355.526 445.762 354.724 445.573 353.997 445.209C353.27 444.845 352.637 444.317 352.149 443.667L339.303 426.538C338.89 425.988 338.589 425.361 338.418 424.695C338.246 424.028 338.208 423.334 338.305 422.653C338.402 421.972 338.633 421.316 338.983 420.724C339.334 420.132 339.798 419.614 340.348 419.201C340.899 418.789 341.525 418.488 342.192 418.318C342.859 418.147 343.553 418.109 344.234 418.207C344.915 418.305 345.57 418.536 346.162 418.887C346.754 419.238 347.271 419.702 347.684 420.253L356.088 431.458L377.674 399.08C378.056 398.507 378.546 398.016 379.118 397.633C379.689 397.25 380.331 396.984 381.005 396.849C381.68 396.714 382.374 396.713 383.049 396.847C383.724 396.98 384.365 397.245 384.938 397.627C385.51 398.008 386.002 398.499 386.384 399.071C386.767 399.642 387.034 400.283 387.169 400.958C387.303 401.632 387.304 402.327 387.171 403.002C387.037 403.676 386.772 404.318 386.391 404.891L360.698 443.43C360.233 444.127 359.608 444.702 358.875 445.107C358.142 445.513 357.322 445.737 356.485 445.76C356.436 445.761 356.388 445.762 356.339 445.762Z" fill="#5CC8F2"/>
<path d="M514.834 182.635C516.705 182.475 518.132 181.29 518.021 179.988C517.909 178.687 516.302 177.761 514.431 177.921C512.56 178.081 511.133 179.266 511.244 180.568C511.356 181.869 512.963 182.795 514.834 182.635Z" fill="white"/>
<path d="M535.888 175.493C537.759 175.333 539.186 174.148 539.074 172.847C538.963 171.545 537.356 170.619 535.485 170.779C533.614 170.939 532.187 172.124 532.298 173.426C532.41 174.728 534.017 175.653 535.888 175.493Z" fill="#3F3D56"/>
<path d="M504.854 166.573C506.725 166.413 508.151 165.228 508.04 163.926C507.929 162.625 506.322 161.699 504.451 161.859C502.579 162.019 501.153 163.204 501.264 164.506C501.375 165.807 502.982 166.733 504.854 166.573Z" fill="#5CC8F2"/>
<path d="M496.023 161.397C496.828 161.215 497.269 160.129 497.007 158.971C496.746 157.814 495.881 157.023 495.075 157.205C494.27 157.387 493.829 158.473 494.091 159.63C494.352 160.788 495.217 161.579 496.023 161.397Z" fill="#E6E6E6"/>
<path d="M489.736 148.832C490.541 148.65 490.982 147.564 490.72 146.407C490.459 145.249 489.594 144.458 488.788 144.64C487.983 144.822 487.542 145.908 487.804 147.065C488.065 148.223 488.93 149.014 489.736 148.832Z" fill="#3F3D56"/>
<path d="M519.902 166.478C520.707 166.296 521.148 165.21 520.886 164.052C520.625 162.894 519.76 162.103 518.954 162.285C518.149 162.467 517.708 163.553 517.97 164.711C518.231 165.869 519.096 166.66 519.902 166.478Z" fill="#E6E6E6"/>
<path d="M510.706 174.111C511.512 173.929 511.952 172.843 511.691 171.686C511.429 170.528 510.564 169.737 509.759 169.919C508.954 170.101 508.513 171.187 508.774 172.345C509.036 173.502 509.901 174.293 510.706 174.111Z" fill="#5CC8F2"/>
<path d="M527.446 180.329C528.252 180.147 528.693 179.061 528.431 177.903C528.17 176.746 527.305 175.955 526.499 176.137C525.694 176.319 525.253 177.405 525.515 178.562C525.776 179.72 526.641 180.511 527.446 180.329Z" fill="#3F3D56"/>
<path d="M427.913 85.3041C428.234 84.0377 427.018 82.6371 425.198 82.1757C423.377 81.7144 421.641 82.367 421.32 83.6334C420.999 84.8998 422.215 86.3004 424.035 86.7617C425.856 87.2231 427.592 86.5705 427.913 85.3041Z" fill="white"/>
<path d="M405.681 85.1607C406.002 83.8943 404.787 82.4937 402.966 82.0324C401.146 81.5711 399.41 82.2237 399.089 83.4901C398.768 84.7565 399.984 86.1571 401.804 86.6184C403.624 87.0798 405.36 86.4271 405.681 85.1607Z" fill="#3F3D56"/>
<path d="M432.084 103.748C432.405 102.482 431.189 101.081 429.369 100.62C427.548 100.158 425.812 100.811 425.491 102.077C425.17 103.344 426.386 104.744 428.206 105.206C430.027 105.667 431.763 105.014 432.084 103.748Z" fill="#5CC8F2"/>
<path d="M437.266 110.703C437.398 109.523 436.839 108.493 436.019 108.401C435.198 108.309 434.426 109.191 434.294 110.371C434.163 111.55 434.721 112.581 435.541 112.673C436.362 112.764 437.134 111.882 437.266 110.703Z" fill="#E6E6E6"/>
<path d="M439.094 124.634C439.226 123.454 438.667 122.424 437.847 122.332C437.026 122.24 436.254 123.122 436.122 124.302C435.991 125.481 436.549 126.512 437.37 126.603C438.19 126.695 438.962 125.813 439.094 124.634Z" fill="#3F3D56"/>
<path d="M416.366 98.0855C416.498 96.9059 415.94 95.8754 415.119 95.7837C414.299 95.692 413.527 96.5739 413.395 97.7535C413.263 98.933 413.821 99.9635 414.642 100.055C415.463 100.147 416.235 99.265 416.366 98.0855Z" fill="#E6E6E6"/>
<path d="M427.554 93.8825C427.686 92.703 427.127 91.6724 426.307 91.5808C425.486 91.4891 424.714 92.3709 424.582 93.5505C424.451 94.73 425.009 95.7605 425.829 95.8522C426.65 95.9439 427.422 95.062 427.554 93.8825Z" fill="#5CC8F2"/>
<path d="M413.771 82.5275C413.902 81.348 413.344 80.3174 412.524 80.2257C411.703 80.1341 410.931 81.0159 410.799 82.1955C410.667 83.375 411.226 84.4055 412.046 84.4972C412.867 84.5889 413.639 83.707 413.771 82.5275Z" fill="#3F3D56"/>
<path d="M187.575 202.263H186.262V30H287.719V31.3137C261.159 31.3137 235.687 41.8645 216.907 60.6451C198.126 79.4256 187.575 104.897 187.575 131.457V202.263Z" fill="#F2F2F2"/>
<path d="M246.412 353.643C244.733 352.955 243.224 351.911 241.988 350.582C240.753 349.253 239.82 347.672 239.256 345.948C238.692 344.223 238.508 342.397 238.719 340.595C238.93 338.792 239.53 337.057 240.477 335.51L204.28 284.628L215.893 271.156L258.443 331.903C260.929 333.692 262.673 336.33 263.344 339.318C264.015 342.306 263.567 345.437 262.084 348.117C260.601 350.796 258.187 352.839 255.298 353.858C252.41 354.876 249.248 354.8 246.412 353.643Z" fill="#FFB6B6"/>
<path d="M247.244 192.4C245.412 191.322 243.257 190.933 241.165 191.301C239.072 191.67 237.179 192.772 235.826 194.41L186.919 262.809L232.243 327.183L249.979 308.133L222.39 264.78L259.056 229.87C262.069 223.269 262.529 215.786 260.347 208.866C258.166 201.946 253.497 196.079 247.244 192.4Z" fill="#5CC8F2"/>
</g>
<defs>
<clipPath id="clip0_105_1457">
<rect width="378.001" height="439" fill="white" transform="translate(186.262 30)"/>
</clipPath>
</defs>
</svg>
