<svg width="327" height="540" viewBox="0 0 327 540" fill="none" xmlns="http://www.w3.org/2000/svg">
<rect x="10" y="10" width="307" height="96" rx="16" fill="#EAF0F1"/>
<rect x="34" y="34" width="259" height="18" rx="8" fill="#C2C8C9"/>
<rect x="73" y="64" width="220" height="18" rx="8" fill="#C2C8C9"/>
<rect x="10" y="116" width="307" height="96" rx="16" fill="#EAF0F1"/>
<rect x="34" y="140" width="259" height="18" rx="8" fill="#C2C8C9"/>
<rect x="73" y="170" width="220" height="18" rx="8" fill="#C2C8C9"/>
<rect x="10" y="222" width="307" height="96" rx="16" fill="#EAF0F1"/>
<rect x="34" y="246" width="259" height="18" rx="8" fill="#C2C8C9"/>
<rect x="73" y="276" width="220" height="18" rx="8" fill="#C2C8C9"/>
<rect x="10" y="328" width="307" height="96" rx="16" fill="#EAF0F1"/>
<rect x="34" y="352" width="259" height="18" rx="8" fill="#C2C8C9"/>
<rect x="73" y="382" width="220" height="18" rx="8" fill="#C2C8C9"/>
<rect x="10" y="434" width="307" height="96" rx="16" fill="#EAF0F1"/>
<rect x="34" y="458" width="259" height="18" rx="8" fill="#C2C8C9"/>
<rect x="73" y="488" width="220" height="18" rx="8" fill="#C2C8C9"/>
</svg>
