<svg width="1140" height="540" viewBox="0 0 1140 540" fill="none" xmlns="http://www.w3.org/2000/svg">
<rect x="10" y="10" width="1120" height="96" rx="16" fill="#EAF0F1"/>
<rect x="72" y="34" width="1034" height="18" rx="8" fill="#C2C8C9"/>
<rect x="886" y="64" width="220" height="18" rx="8" fill="#C2C8C9"/>
<rect x="10" y="116" width="1120" height="96" rx="16" fill="#EAF0F1"/>
<rect x="72" y="140" width="1034" height="18" rx="8" fill="#C2C8C9"/>
<rect x="886" y="170" width="220" height="18" rx="8" fill="#C2C8C9"/>
<rect x="10" y="222" width="1120" height="96" rx="16" fill="#EAF0F1"/>
<rect x="72" y="246" width="1034" height="18" rx="8" fill="#C2C8C9"/>
<rect x="886" y="276" width="220" height="18" rx="8" fill="#C2C8C9"/>
<rect x="10" y="328" width="1120" height="96" rx="16" fill="#EAF0F1"/>
<rect x="72" y="352" width="1034" height="18" rx="8" fill="#C2C8C9"/>
<rect x="886" y="382" width="220" height="18" rx="8" fill="#C2C8C9"/>
<rect x="10" y="434" width="1120" height="96" rx="16" fill="#EAF0F1"/>
<rect x="72" y="458" width="1034" height="18" rx="8" fill="#C2C8C9"/>
<rect x="886" y="488" width="220" height="18" rx="8" fill="#C2C8C9"/>
</svg>
