<svg width="327" height="1074" viewBox="0 0 327 1074" fill="none" xmlns="http://www.w3.org/2000/svg">
<path d="M0 32C0 14.3269 14.3269 0 32 0H295C312.673 0 327 14.3269 327 32V497C327 514.673 312.673 529 295 529H32C14.3269 529 0 514.673 0 497V32Z" fill="#EBEBEB"/>
<path d="M24 44C24 32.9543 32.9543 24 44 24H283C294.046 24 303 32.9543 303 44V220C303 231.046 294.046 240 283 240H44C32.9543 240 24 231.046 24 220V44Z" fill="#D7D7D7"/>
<rect x="186" y="260" width="117" height="49" rx="8" fill="#D9D9D9"/>
<rect x="135" y="321" width="168" height="24" rx="8" fill="#D9D9D9"/>
<rect x="44" y="365" width="259" height="18" rx="8" fill="#D9D9D9"/>
<rect x="83" y="395" width="220" height="18" rx="8" fill="#D9D9D9"/>
<rect x="91" y="433" width="118" height="32" rx="8" fill="#D9D9D9"/>
<rect x="217" y="433" width="86" height="32" rx="8" fill="#D9D9D9"/>
<rect x="80" y="473" width="97" height="32" rx="8" fill="#D9D9D9"/>
<rect x="185" y="473" width="118" height="32" rx="8" fill="#D9D9D9"/>
<path d="M0 577C0 559.327 14.3269 545 32 545H295C312.673 545 327 559.327 327 577V1042C327 1059.67 312.673 1074 295 1074H32C14.3269 1074 0 1059.67 0 1042V577Z" fill="#EBEBEB"/>
<path d="M24 589C24 577.954 32.9543 569 44 569H283C294.046 569 303 577.954 303 589V765C303 776.046 294.046 785 283 785H44C32.9543 785 24 776.046 24 765V589Z" fill="#D7D7D7"/>
<rect x="186" y="805" width="117" height="49" rx="8" fill="#D9D9D9"/>
<rect x="135" y="866" width="168" height="24" rx="8" fill="#D9D9D9"/>
<rect x="44" y="910" width="259" height="18" rx="8" fill="#D9D9D9"/>
<rect x="83" y="940" width="220" height="18" rx="8" fill="#D9D9D9"/>
<rect x="91" y="978" width="118" height="32" rx="8" fill="#D9D9D9"/>
<rect x="217" y="978" width="86" height="32" rx="8" fill="#D9D9D9"/>
<rect x="80" y="1018" width="97" height="32" rx="8" fill="#D9D9D9"/>
<rect x="185" y="1018" width="118" height="32" rx="8" fill="#D9D9D9"/>
</svg>
